<svg class="animated" id="freepik_stories-add-files" xmlns="http://www.w3.org/2000/svg" viewBox="0 0 500 500" version="1.1" xmlns:xlink="http://www.w3.org/1999/xlink" xmlns:svgjs="http://svgjs.com/svgjs"><style>svg#freepik_stories-add-files:not(.animated) .animable {opacity: 0;}svg#freepik_stories-add-files.animated #freepik--Character--inject-40 {animation: 3s Infinite  linear floating;animation-delay: 0s;}            @keyframes floating {                0% {                    opacity: 1;                    transform: translateY(0px);                }                50% {                    transform: translateY(-10px);                }                100% {                    opacity: 1;                    transform: translateY(0px);                }            }        </style><g id="freepik--background-complete--inject-40" class="animable" style="transform-origin: 250px 228.015px;"><rect y="382.4" width="500" height="0.25" style="fill: rgb(235, 235, 235); transform-origin: 250px 382.525px;" id="el14ex9ek3s48a" class="animable"></rect><rect x="416.78" y="398.49" width="33.12" height="0.25" style="fill: rgb(235, 235, 235); transform-origin: 433.34px 398.615px;" id="elln7zzjdli6" class="animable"></rect><rect x="260.33" y="395.36" width="12.89" height="0.25" style="fill: rgb(235, 235, 235); transform-origin: 266.775px 395.485px;" id="elsfsps2q4izh" class="animable"></rect><rect x="322.53" y="396.42" width="27.14" height="0.25" style="fill: rgb(235, 235, 235); transform-origin: 336.1px 396.545px;" id="elkl8zgg5sizb" class="animable"></rect><rect x="359.67" y="389.21" width="56.11" height="0.25" style="fill: rgb(235, 235, 235); transform-origin: 387.725px 389.335px;" id="elkh37s5js12q" class="animable"></rect><rect x="52.46" y="400.78" width="26.53" height="0.25" style="fill: rgb(235, 235, 235); transform-origin: 65.725px 400.905px;" id="eleuwmrra6r1f" class="animable"></rect><rect x="87.89" y="400.78" width="23" height="0.25" style="fill: rgb(235, 235, 235); transform-origin: 99.39px 400.905px;" id="elohv0b4f6fnc" class="animable"></rect><rect x="131" y="395.24" width="60.81" height="0.25" style="fill: rgb(235, 235, 235); transform-origin: 161.405px 395.365px;" id="elkuyjkbeqavo" class="animable"></rect><path d="M237,337.8H43.91a5.71,5.71,0,0,1-5.7-5.71V60.66A5.71,5.71,0,0,1,43.91,55H237a5.71,5.71,0,0,1,5.71,5.71V332.09A5.71,5.71,0,0,1,237,337.8ZM43.91,55.2a5.46,5.46,0,0,0-5.45,5.46V332.09a5.46,5.46,0,0,0,5.45,5.46H237a5.47,5.47,0,0,0,5.46-5.46V60.66A5.47,5.47,0,0,0,237,55.2Z" style="fill: rgb(235, 235, 235); transform-origin: 140.46px 196.4px;" id="eldhkfuifjzg4" class="animable"></path><path d="M453.31,337.8H260.21a5.72,5.72,0,0,1-5.71-5.71V60.66A5.72,5.72,0,0,1,260.21,55h193.1A5.71,5.71,0,0,1,459,60.66V332.09A5.71,5.71,0,0,1,453.31,337.8ZM260.21,55.2a5.47,5.47,0,0,0-5.46,5.46V332.09a5.47,5.47,0,0,0,5.46,5.46h193.1a5.47,5.47,0,0,0,5.46-5.46V60.66a5.47,5.47,0,0,0-5.46-5.46Z" style="fill: rgb(235, 235, 235); transform-origin: 356.75px 196.4px;" id="elk0opwhz3jqc" class="animable"></path><path d="M264.9,296.39c-2-5.75-17.79,2.07-24.2,11.6-4.27,6.34-6.88,13.12-8.09,22.22.14-10.38.31-21.54.47-32.07,1.3-2.62,4.26-8.67,6.38-13.47,7.11-16,24-22,29.83-32.06,7.65-13.24,7.6-33.09,1.1-40.26-5.66-6.22-24.39,35.88-26.5,40.58a125,125,0,0,0-10.73,39.82c.16-9.89.31-19,.43-26,.4-22.85.89-30.2,1.12-32.46.78-1.1,1.7-2.39,2.24-3.08,4.53-5.83,14.59-12.78,19.61-21.26,7.34-12.39,6.16-27.21,1-32.73-5.38-5.77-14.9,7.87-19.95,21.38s-2.89,26.45-4.31,37.68c-.29,2.2-.6,10.56-.88,22.16-1.54-12.48-4.59-20.84-10.25-28.63-7-9.58-13-21.25-18.69-19.74s-2.65,16.94,1.89,27.78c4,9.66,24,19.28,26.9,27.05-.35,15.72-.66,35.64-.88,54.18-1.57-9.58-.49-10.38-6.93-25.05-3.82-8.72-19.51-19.47-21.38-13.48s1,17.31,6.89,25.24c4.78,6.4,15.38,6.39,17.83,10.36.58.93,2.47,4.48,3.55,6.52-.26,22.64-.37,42.63-.24,49.44l1,.07c0-1.76.08-13.28.28-28.52,2.58-8.11,19.91-12.84,25.26-21.28C263.28,313.59,267.31,303.29,264.9,296.39Z" style="fill: rgb(230, 230, 230); transform-origin: 237.765px 274.02px;" id="elaykhoaw07ui" class="animable"></path><path d="M248.61,382.4H215.35a3.82,3.82,0,0,1-3.75-3.06l-2.36-11.64h45.48l-2.37,11.64A3.81,3.81,0,0,1,248.61,382.4Z" style="fill: rgb(240, 240, 240); transform-origin: 231.98px 375.05px;" id="eljvktucsszu" class="animable"></path><path d="M255.67,372.21H208.29a2.23,2.23,0,0,1-2.22-2l-1-8.61a2.24,2.24,0,0,1,2.22-2.48h49.32a2.23,2.23,0,0,1,2.21,2.48l-1,8.61A2.22,2.22,0,0,1,255.67,372.21Z" style="fill: rgb(240, 240, 240); transform-origin: 231.946px 365.665px;" id="el5vk4mh3zr95" class="animable"></path><g id="elbgy70fgz8le"><rect x="400.76" y="242.32" width="31.85" height="135.91" style="fill: rgb(240, 240, 240); transform-origin: 416.685px 310.275px; transform: rotate(180deg);" class="animable"></rect></g><g id="el0igu3aolj2m"><rect x="265.45" y="378.23" width="165.02" height="4.17" style="fill: rgb(240, 240, 240); transform-origin: 347.96px 380.315px; transform: rotate(180deg);" class="animable"></rect></g><rect x="263.31" y="242.32" width="137.45" height="135.91" style="fill: rgb(245, 245, 245); transform-origin: 332.035px 310.275px;" id="elf480jttlkco" class="animable"></rect><rect x="275.83" y="295.89" width="112.41" height="28.78" style="fill: rgb(240, 240, 240); transform-origin: 332.035px 310.28px;" id="eluty56l9t99" class="animable"></rect><rect x="275.83" y="332.93" width="112.41" height="28.78" style="fill: rgb(240, 240, 240); transform-origin: 332.035px 347.32px;" id="elhxa5sfgv95" class="animable"></rect><g id="el0zhpluy1lx1"><rect x="316.31" y="294.64" width="31.45" height="6.21" rx="3.11" style="fill: rgb(245, 245, 245); transform-origin: 332.035px 297.745px; transform: rotate(180deg);" class="animable"></rect></g><rect x="275.83" y="258.85" width="112.41" height="28.78" style="fill: rgb(240, 240, 240); transform-origin: 332.035px 273.24px;" id="elxvdu45oj0ij" class="animable"></rect><path d="M319.42,263.81h25.23a3.12,3.12,0,0,0,3.11-3.1h0a3.12,3.12,0,0,0-3.11-3.11H319.42a3.12,3.12,0,0,0-3.11,3.11h0A3.12,3.12,0,0,0,319.42,263.81Z" style="fill: rgb(245, 245, 245); transform-origin: 332.035px 260.705px;" id="eltgpgw9hjnr" class="animable"></path><path d="M319.42,337.89h25.23a3.11,3.11,0,0,0,3.11-3.1h0a3.12,3.12,0,0,0-3.11-3.11H319.42a3.12,3.12,0,0,0-3.11,3.11h0A3.11,3.11,0,0,0,319.42,337.89Z" style="fill: rgb(245, 245, 245); transform-origin: 332.035px 334.785px;" id="elf8b855ll1xv" class="animable"></path><g id="elato06benkym"><rect x="260.48" y="238.45" width="140.28" height="3.88" style="fill: rgb(240, 240, 240); transform-origin: 330.62px 240.39px; transform: rotate(180deg);" class="animable"></rect></g><rect x="400.76" y="238.45" width="34.88" height="3.88" style="fill: rgb(230, 230, 230); transform-origin: 418.2px 240.39px;" id="elwet3b867b7e" class="animable"></rect><g id="ely0xtlm03jfa"><rect x="147.42" y="178.87" width="31.47" height="203.53" style="fill: rgb(224, 224, 224); transform-origin: 163.155px 280.635px; transform: rotate(180deg);" class="animable"></rect></g><polygon points="67.21 382.4 172.58 382.4 183.65 131.88 78.28 131.88 67.21 382.4" style="fill: rgb(230, 230, 230); transform-origin: 125.43px 257.14px;" id="el5xi34pdmj99" class="animable"></polygon><polygon points="51.84 382.4 168.4 382.4 179.46 131.88 62.91 131.88 51.84 382.4" style="fill: rgb(240, 240, 240); transform-origin: 115.65px 257.14px;" id="elexpoxhqz3i5" class="animable"></polygon><polygon points="156.99 370.12 166.31 144.17 74.32 144.17 64.99 370.12 156.99 370.12" style="fill: rgb(255, 255, 255); transform-origin: 115.65px 257.145px;" id="elm7pexcgwnq" class="animable"></polygon><polygon points="117.46 370.12 148.73 144.17 138.92 144.17 107.65 370.12 117.46 370.12" style="fill: rgb(250, 250, 250); transform-origin: 128.19px 257.145px;" id="eltmj5t5el74" class="animable"></polygon><polygon points="103.49 370.12 134.76 144.17 118.03 144.17 86.76 370.12 103.49 370.12" style="fill: rgb(250, 250, 250); transform-origin: 110.76px 257.145px;" id="elaonza462ev5" class="animable"></polygon><g id="el1zwxu6njrht"><rect x="293.46" y="80.82" width="127.53" height="119.3" style="fill: rgb(230, 230, 230); transform-origin: 357.225px 140.47px; transform: rotate(180deg);" class="animable"></rect></g><g id="elh7a0nzlrc4i"><rect x="289.51" y="80.82" width="129.64" height="119.3" style="fill: rgb(245, 245, 245); transform-origin: 354.33px 140.47px; transform: rotate(180deg);" class="animable"></rect></g><g id="els28l1938wof"><rect x="293.46" y="200.12" width="127.53" height="4.88" style="fill: rgb(230, 230, 230); transform-origin: 357.225px 202.56px; transform: rotate(180deg);" class="animable"></rect></g><g id="elhk9qyj1wcnj"><rect x="285.95" y="200.12" width="120.98" height="4.88" style="fill: rgb(245, 245, 245); transform-origin: 346.44px 202.56px; transform: rotate(180deg);" class="animable"></rect></g><g id="elb1k6imz7hzt"><rect x="302.07" y="81.19" width="104.51" height="118.56" style="fill: rgb(250, 250, 250); transform-origin: 354.325px 140.47px; transform: rotate(90deg);" class="animable"></rect></g><g id="elaoy2satpm7d"><rect x="243.19" y="140.07" width="104.51" height="0.79" style="fill: rgb(230, 230, 230); transform-origin: 295.445px 140.465px; transform: rotate(90deg);" class="animable"></rect></g><polygon points="393.94 192.72 373.44 88.21 346.57 88.21 367.07 192.72 393.94 192.72" style="fill: rgb(255, 255, 255); transform-origin: 370.255px 140.465px;" id="elrzh0ellovjd" class="animable"></polygon><polygon points="362.72 192.72 342.22 88.21 330.09 88.21 350.59 192.72 362.72 192.72" style="fill: rgb(255, 255, 255); transform-origin: 346.405px 140.465px;" id="elsl6htyv4px" class="animable"></polygon><g id="el6ezfgnirn45"><rect x="353.23" y="131.25" width="111.56" height="1.27" rx="0.61" style="fill: rgb(235, 235, 235); transform-origin: 409.01px 131.885px; transform: rotate(90deg);" class="animable"></rect></g><g id="el4xyf2t2koww"><rect x="286.6" y="76.11" width="136.55" height="18.26" style="fill: rgb(230, 230, 230); opacity: 0.5; transform-origin: 354.875px 85.24px; transform: rotate(180deg);" class="animable"></rect></g><g id="elcfbzchndxgn"><rect x="286.6" y="76.11" width="136.55" height="2.27" style="fill: rgb(224, 224, 224); transform-origin: 354.875px 77.245px; transform: rotate(180deg);" class="animable"></rect></g><g id="elh0d7ilva88"><rect x="285.95" y="75.11" width="137.84" height="1.99" rx="0.87" style="fill: rgb(235, 235, 235); transform-origin: 354.87px 76.105px; transform: rotate(-180deg);" class="animable"></rect></g><path d="M286.43,94.84H423.32a.47.47,0,0,0,.47-.48h0a.47.47,0,0,0-.47-.47H286.43a.48.48,0,0,0-.48.47h0A.48.48,0,0,0,286.43,94.84Z" style="fill: rgb(255, 255, 255); transform-origin: 354.87px 94.365px;" id="el2i13fliai52" class="animable"></path></g><g id="freepik--Shadow--inject-40" class="animable" style="transform-origin: 250px 416.24px;"><ellipse id="freepik--path--inject-40" cx="250" cy="416.24" rx="193.89" ry="11.32" style="fill: rgb(245, 245, 245); transform-origin: 250px 416.24px;" class="animable"></ellipse></g><g id="freepik--Folder--inject-40" class="animable animator-active" style="transform-origin: 166.137px 273.239px;"><g id="elf6qv6yhl1gi"><rect x="64.73" y="272.09" width="1.02" height="15.5" style="fill: rgb(97, 0, 237); transform-origin: 65.24px 279.84px; transform: rotate(-6.67deg);" class="animable"></rect></g><g id="el9b49p26lpr5"><rect x="66.76" y="293.23" width="1.02" height="7.82" style="fill: rgb(97, 0, 237); transform-origin: 67.27px 297.14px; transform: rotate(-6.67deg);" class="animable"></rect></g><path d="M134.59,240.69l-1.2-3.37a10.86,10.86,0,0,0-11.5-7.14L74.1,235.77a10.87,10.87,0,0,0-9.53,12.06l13.6,116.3a7.45,7.45,0,0,0,8.27,6.54l171-20A7.45,7.45,0,0,0,264,342.4L252.2,241.86a7.45,7.45,0,0,0-8.26-6.54l-99.3,11.62A9.51,9.51,0,0,1,134.59,240.69Z" style="fill: rgb(97, 0, 237); transform-origin: 164.273px 300.413px;" id="elp4v36pbw3im" class="animable"></path><g id="el9glr0eky4dv"><rect x="92.22" y="194.76" width="55.09" height="75.9" style="fill: rgb(97, 0, 237); transform-origin: 119.765px 232.71px; transform: rotate(-11.27deg);" class="animable"></rect></g><g id="el0i6act4oqyu5"><rect x="92.22" y="194.76" width="55.09" height="75.9" style="fill: rgb(255, 255, 255); opacity: 0.7; transform-origin: 119.765px 232.71px; transform: rotate(-11.27deg);" class="animable"></rect></g><g id="el4ea38jq3l73"><g style="opacity: 0.4; transform-origin: 118.605px 233.034px;" class="animable"><path d="M132.15,208l-33.28,6.64a3,3,0,0,1-3.51-2.34h0a3,3,0,0,1,2.34-3.51L131,202.18a3,3,0,0,1,3.51,2.34h0A3,3,0,0,1,132.15,208Z" style="fill: rgb(97, 0, 237); transform-origin: 114.932px 208.41px;" id="elmppr84n460t" class="animable"></path><path d="M134.6,220.33,101.32,227a3,3,0,0,1-3.5-2.34h0a3,3,0,0,1,2.34-3.5l33.28-6.63a3,3,0,0,1,3.5,2.34h0A3,3,0,0,1,134.6,220.33Z" style="fill: rgb(97, 0, 237); transform-origin: 117.376px 220.765px;" id="elej0ra8zixe4" class="animable"></path><path d="M137.05,232.64l-33.28,6.63a3,3,0,0,1-3.5-2.34h0a3,3,0,0,1,2.34-3.5l33.28-6.64a3,3,0,0,1,3.5,2.34h0A3,3,0,0,1,137.05,232.64Z" style="fill: rgb(97, 0, 237); transform-origin: 119.831px 233.03px;" id="elyll4cihtxoe" class="animable"></path><path d="M139.51,245l-33.28,6.63a3,3,0,0,1-3.51-2.34h0a3,3,0,0,1,2.34-3.51l33.28-6.63a3,3,0,0,1,3.51,2.34h0A3,3,0,0,1,139.51,245Z" style="fill: rgb(97, 0, 237); transform-origin: 122.285px 245.39px;" id="elaearw5m16jq" class="animable"></path><path d="M132.86,259.07l-24.18,4.82a3,3,0,0,1-3.5-2.34h0a3,3,0,0,1,2.34-3.51l24.18-4.82a3,3,0,0,1,3.5,2.34h0A3,3,0,0,1,132.86,259.07Z" style="fill: rgb(97, 0, 237); transform-origin: 120.19px 258.555px;" id="elank08tluean" class="animable"></path></g></g><g id="el8jnpk8z4tgw"><rect x="166.66" y="179.14" width="55.09" height="75.9" style="fill: rgb(97, 0, 237); transform-origin: 194.205px 217.09px; transform: rotate(-7.79deg);" class="animable"></rect></g><g id="elc22uj6modxg"><rect x="166.66" y="179.14" width="55.09" height="75.9" style="fill: rgb(255, 255, 255); opacity: 0.7; transform-origin: 194.205px 217.09px; transform: rotate(-7.79deg);" class="animable"></rect></g><g id="el3zza5fx7we9"><g style="opacity: 0.4; transform-origin: 193.395px 217.409px;" class="animable"><path d="M208.06,193.2l-33.62,4.6a3,3,0,0,1-3.36-2.55h0a3,3,0,0,1,2.55-3.36l33.62-4.6a3,3,0,0,1,3.36,2.55h0A3,3,0,0,1,208.06,193.2Z" style="fill: rgb(97, 0, 237); transform-origin: 190.845px 192.545px;" id="elu04krw7319s" class="animable"></path><path d="M209.76,205.63l-33.62,4.6a3,3,0,0,1-3.36-2.55h0a3,3,0,0,1,2.55-3.35l33.62-4.6a3,3,0,0,1,3.36,2.54h0A3,3,0,0,1,209.76,205.63Z" style="fill: rgb(97, 0, 237); transform-origin: 192.546px 204.98px;" id="elqr0r61vfun" class="animable"></path><path d="M187.1,221.4l-9.26,1.27a3,3,0,0,1-3.36-2.55h0a3,3,0,0,1,2.55-3.36l9.27-1.27a3,3,0,0,1,3.35,2.55h0A3,3,0,0,1,187.1,221.4Z" style="fill: rgb(97, 0, 237); transform-origin: 182.065px 219.081px;" id="el568da7gkal2" class="animable"></path><path d="M205.07,218.94l-9.27,1.27a3,3,0,0,1-3.35-2.55h0A3,3,0,0,1,195,214.3l9.26-1.26a3,3,0,0,1,3.36,2.54h0A3,3,0,0,1,205.07,218.94Z" style="fill: rgb(97, 0, 237); transform-origin: 200.035px 216.624px;" id="elkq3tm18o4kl" class="animable"></path><path d="M213.16,230.5l-33.62,4.6a3,3,0,0,1-3.36-2.55h0a3,3,0,0,1,2.55-3.35l33.62-4.61a3,3,0,0,1,3.36,2.55h0A3,3,0,0,1,213.16,230.5Z" style="fill: rgb(97, 0, 237); transform-origin: 195.946px 229.845px;" id="el409l0fwh4pe" class="animable"></path><path d="M205.68,244.19l-24.44,3.34a3,3,0,0,1-3.35-2.54h0a3,3,0,0,1,2.54-3.36l24.44-3.34a3,3,0,0,1,3.35,2.54h0A3,3,0,0,1,205.68,244.19Z" style="fill: rgb(97, 0, 237); transform-origin: 193.055px 242.91px;" id="el7jzmiqvujhb" class="animable"></path></g></g><g id="el1yt9c567kme"><rect x="113.15" y="188.99" width="55.09" height="75.9" style="fill: rgb(97, 0, 237); transform-origin: 140.695px 226.94px; transform: rotate(-4.98deg);" class="animable"></rect></g><g id="el3cxmt64cxs6"><rect x="113.15" y="188.99" width="55.09" height="75.9" style="fill: rgb(255, 255, 255); opacity: 0.8; transform-origin: 140.695px 226.94px; transform: rotate(-4.98deg);" class="animable"></rect></g><g id="elkie6n2c0at"><g style="opacity: 0.4; transform-origin: 140.188px 227.241px;" class="animable"><path d="M155.71,203.76,121.9,206.7a3,3,0,0,1-3.23-2.71h0a3,3,0,0,1,2.71-3.22l33.81-3a3,3,0,0,1,3.23,2.71h0A3,3,0,0,1,155.71,203.76Z" style="fill: rgb(97, 0, 237); transform-origin: 138.548px 202.235px;" id="elmddr2hyarc" class="animable"></path><path d="M156.8,216.26l-33.81,3a3,3,0,0,1-3.23-2.71h0a3,3,0,0,1,2.71-3.23l33.81-3a3,3,0,0,1,3.23,2.71h0A3,3,0,0,1,156.8,216.26Z" style="fill: rgb(97, 0, 237); transform-origin: 139.635px 214.79px;" id="el6ktk6yekne3" class="animable"></path><path d="M157.89,228.76l-33.81,3a3,3,0,0,1-3.23-2.71h0a3,3,0,0,1,2.71-3.23l33.81-3a3,3,0,0,1,3.23,2.71h0A3,3,0,0,1,157.89,228.76Z" style="fill: rgb(97, 0, 237); transform-origin: 140.725px 227.29px;" id="el64qze9qoma7" class="animable"></path><path d="M159,241.26l-33.81,3a3,3,0,0,1-3.23-2.71h0a3,3,0,0,1,2.71-3.23l33.81-2.94a3,3,0,0,1,3.23,2.71h0A3,3,0,0,1,159,241.26Z" style="fill: rgb(97, 0, 237); transform-origin: 141.833px 239.82px;" id="ela3poav8bfiu" class="animable"></path><path d="M150.83,254.57l-24.57,2.14A3,3,0,0,1,123,254h0a3,3,0,0,1,2.71-3.23l24.57-2.14a3,3,0,0,1,3.23,2.71h0A3,3,0,0,1,150.83,254.57Z" style="fill: rgb(97, 0, 237); transform-origin: 138.255px 252.671px;" id="elm0oanvy4gte" class="animable"></path></g></g><g id="elix6p6kac21p"><rect x="178.5" y="184.34" width="55.09" height="75.9" style="fill: rgb(97, 0, 237); transform-origin: 206.045px 222.29px; transform: rotate(-2.76deg);" class="animable"></rect></g><g id="elywi4n677swc"><rect x="178.5" y="184.34" width="55.09" height="75.9" style="fill: rgb(255, 255, 255); opacity: 0.8; transform-origin: 206.045px 222.29px; transform: rotate(-2.76deg);" class="animable"></rect></g><g id="eljerxetfg7k"><g style="opacity: 0.4; transform-origin: 205.76px 222.615px;" class="animable"><path d="M221.94,199.7l-33.89,1.64a3,3,0,0,1-3.12-2.83h0a3,3,0,0,1,2.83-3.12l33.9-1.64a3,3,0,0,1,3.12,2.83h0A3,3,0,0,1,221.94,199.7Z" style="fill: rgb(97, 0, 237); transform-origin: 204.855px 197.545px;" id="eli74r0jl3b6" class="animable"></path><path d="M222.55,212.24l-33.9,1.63a3,3,0,0,1-3.12-2.83h0a3,3,0,0,1,2.84-3.12l33.89-1.64a3,3,0,0,1,3.12,2.84h0A3,3,0,0,1,222.55,212.24Z" style="fill: rgb(97, 0, 237); transform-origin: 205.455px 210.075px;" id="el3r15e6hpxbc" class="animable"></path><path d="M198.6,226l-9.34.45a3,3,0,0,1-3.12-2.83h0a3,3,0,0,1,2.83-3.12l9.34-.46a3,3,0,0,1,3.12,2.84h0A3,3,0,0,1,198.6,226Z" style="fill: rgb(97, 0, 237); transform-origin: 193.785px 223.245px;" id="ell27simmen5" class="animable"></path><path d="M216.71,225.08l-9.34.45a3,3,0,0,1-3.12-2.83h0a3,3,0,0,1,2.83-3.12l9.34-.45a3,3,0,0,1,3.12,2.83h0A3,3,0,0,1,216.71,225.08Z" style="fill: rgb(97, 0, 237); transform-origin: 211.895px 222.33px;" id="ely3d7kp0pf7l" class="animable"></path><path d="M223.76,237.31l-33.9,1.63a3,3,0,0,1-3.12-2.83h0a3,3,0,0,1,2.84-3.12l33.89-1.64a3,3,0,0,1,3.12,2.84h0A3,3,0,0,1,223.76,237.31Z" style="fill: rgb(97, 0, 237); transform-origin: 206.665px 235.145px;" id="elns5v8m0tysh" class="animable"></path><path d="M215.1,250.29l-24.63,1.19a3,3,0,0,1-3.12-2.83h0a3,3,0,0,1,2.83-3.12l24.63-1.19a3,3,0,0,1,3.12,2.83h0A3,3,0,0,1,215.1,250.29Z" style="fill: rgb(97, 0, 237); transform-origin: 202.64px 247.91px;" id="elax0x44ahn8" class="animable"></path></g></g><path d="M149.85,242.84l-.88-3.29a9.62,9.62,0,0,0-10.71-7l-47.79,5.59A12,12,0,0,0,79.93,250l2.71,113.85a6.57,6.57,0,0,0,7.57,6.38l171-20a8.22,8.22,0,0,0,7.23-8.11l-2.34-98.42a6.58,6.58,0,0,0-7.58-6.38l-99.29,11.61A8.41,8.41,0,0,1,149.85,242.84Z" style="fill: rgb(97, 0, 237); transform-origin: 174.185px 301.375px;" id="el685uf69titw" class="animable"></path><g id="ello0cyjnl5ws"><path d="M149.85,242.84l-.88-3.29a9.62,9.62,0,0,0-10.71-7l-47.79,5.59A12,12,0,0,0,79.93,250l2.71,113.85a6.57,6.57,0,0,0,7.57,6.38l171-20a8.22,8.22,0,0,0,7.23-8.11l-2.34-98.42a6.58,6.58,0,0,0-7.58-6.38l-99.29,11.61A8.41,8.41,0,0,1,149.85,242.84Z" style="opacity: 0.3; transform-origin: 174.185px 301.375px;" class="animable"></path></g></g><g id="freepik--Character--inject-40" class="animable" style="transform-origin: 346.281px 265.235px;"><path d="M317,188.11c-.74,3.71-1.53,7.37-2.42,11s-1.76,7.3-2.73,10.93l-1.48,5.43-.19.7c-.09.3-.19.6-.31.91a9.18,9.18,0,0,1-1,1.93,7,7,0,0,1-1.87,1.9,6,6,0,0,1-2.73,1A7.83,7.83,0,0,1,300,221a15.65,15.65,0,0,1-2.78-1.93,24.22,24.22,0,0,1-4.07-4.59L296,212a34.87,34.87,0,0,0,4.3,2.86,10.42,10.42,0,0,0,2.06.89c.61.2,1.15.17,1.15.07s-.1,0-.15,0,0,0,0-.17.12-.35.19-.61l.23-1.11,1.16-5.46,2.35-10.92c.76-3.64,1.58-7.29,2.37-10.89Z" style="fill: rgb(255, 195, 189); transform-origin: 305.075px 204.295px;" id="el9pafr8jxtj6" class="animable"></path><path d="M313.68,176.68c-8.53,6.53-8.18,18.84-8.18,18.84l15.25,3.65s4.69-12.38,2.79-16.91C321.56,177.54,318.49,173,313.68,176.68Z" style="fill: rgb(38, 50, 56); transform-origin: 314.746px 187.252px;" id="elemqxwm3s8wg" class="animable"></path><path d="M296.76,212.15l-5.61-5.61-3,8.78s4.74,2.55,9.27.14Z" style="fill: rgb(255, 195, 189); transform-origin: 292.785px 211.518px;" id="elknt0zosh84o" class="animable"></path><polygon points="283.38 205.67 282.35 212.61 288.12 215.32 291.15 206.54 283.38 205.67" style="fill: rgb(255, 195, 189); transform-origin: 286.75px 210.495px;" id="eln3e3jjiypd" class="animable"></polygon><polygon points="363.12 408.86 354.54 409.7 345.61 389.27 354.19 388.43 363.12 408.86" style="fill: rgb(255, 195, 189); transform-origin: 354.365px 399.065px;" id="elnxawb9zezde" class="animable"></polygon><polygon points="418.4 378.66 411.95 384.71 398.04 369.42 404.49 363.37 418.4 378.66" style="fill: rgb(255, 195, 189); transform-origin: 408.22px 374.04px;" id="ela86x1vk54nh" class="animable"></polygon><path d="M409,381.81l4.84-8.72a.71.71,0,0,1,.88-.33l7.45,2.84a1.42,1.42,0,0,1,.69,2c-1.74,3-2.73,4.38-4.86,8.22-1.31,2.36-3.86,7.77-5.67,11s-5.13,1.65-4.67.13c2.07-6.82,1.68-10.61,1.1-13.61A2.3,2.3,0,0,1,409,381.81Z" style="fill: rgb(38, 50, 56); transform-origin: 415.328px 385.71px;" id="elaxf60fhswwu" class="animable"></path><path d="M353.4,407.05h10.54a.86.86,0,0,1,.83.64l2.29,8.33a1.31,1.31,0,0,1-1.28,1.67c-3.72,0-5.48,0-10.11,0H341.51c-3.86,0-4.66-3.89-3.07-4.25,7.15-1.58,11.26-3.76,13.47-5.84A2.18,2.18,0,0,1,353.4,407.05Z" style="fill: rgb(38, 50, 56); transform-origin: 352.39px 412.37px;" id="elhi15fhz73qp" class="animable"></path><g id="elxz038x2j4j"><polygon points="345.62 389.28 350.22 399.81 359.17 399.81 354.2 388.44 345.62 389.28" style="opacity: 0.2; transform-origin: 352.395px 394.125px;" class="animable"></polygon></g><g id="elwcthqeuzq7"><polygon points="404.49 363.38 398.04 369.43 405.22 377.31 411.67 371.25 404.49 363.38" style="opacity: 0.2; transform-origin: 404.855px 370.345px;" class="animable"></polygon></g><path d="M316.26,175.42s-3.86,1.69,9.08,52.89l35.94-3.11c-1.86-14.57-2.66-23.59,1.73-54.22a105.81,105.81,0,0,0-15.43-.69,115.11,115.11,0,0,0-16.32,1.41A152.2,152.2,0,0,0,316.26,175.42Z" style="fill: rgb(38, 50, 56); transform-origin: 339.366px 199.279px;" id="el0q2eptmubf9j" class="animable"></path><path d="M347.58,170s2,0,4.44,0c1.45,2.23-3.25,12-11,18.39a19.7,19.7,0,0,0-6.25-9.06Z" style="fill: rgb(255, 255, 255); transform-origin: 343.526px 179.195px;" id="elq89oc1ln3dj" class="animable"></path><path d="M331.26,171.57s-.91.13-3.08.63c-1.45,2.23-3.9,11.76.37,16.62a19.18,19.18,0,0,1,6.19-9.41Z" style="fill: rgb(255, 255, 255); transform-origin: 330.447px 180.195px;" id="eliu9f2visc9b" class="animable"></path><path d="M344.37,152.05c-.57,5.34-.77,15,3.21,18.24,0,0-4.25,4.34-12.84,9.12-6.25-4.32-3.48-7.71-3.48-7.71,5.73-1.9,5.2-6.23,3.83-10.23Z" style="fill: rgb(255, 195, 189); transform-origin: 339.114px 165.73px;" id="ellzkfl17csp" class="animable"></path><path d="M334.59,179.44s5.27-5.74,8-4.64.62,3.07.38,4.92,1.06,6.77-2.59,5.49S334.59,179.44,334.59,179.44Z" style="fill: rgb(97, 0, 237); transform-origin: 339.282px 180.04px;" id="elacnxspr8ajf" class="animable"></path><path d="M334.38,179.32s-2.49-4.4-5.18-3.81-1.09,2.13-.85,3.79c.31,2.12-1.93,6.2,1.31,5S334.38,179.32,334.38,179.32Z" style="fill: rgb(97, 0, 237); transform-origin: 331.02px 179.986px;" id="el7jztraz050r" class="animable"></path><g id="elc2c8bi2tmhw"><g style="opacity: 0.2; transform-origin: 334.825px 179.365px;" class="animable"><path d="M333,178.37a5.71,5.71,0,0,0,.5,2.58,12,12,0,0,0,.87-1.62,12.11,12.11,0,0,0-1.27-1.77A2.25,2.25,0,0,0,333,178.37Z" id="elyt0fhchb5rn" class="animable" style="transform-origin: 333.683px 179.255px;"></path><path d="M336.51,177.58c-1.13,1-1.91,1.86-1.91,1.86a13.64,13.64,0,0,0,1,1.73,3.44,3.44,0,0,0,1-2.27A2.37,2.37,0,0,0,336.51,177.58Z" id="el3o5dwsh39ym" class="animable" style="transform-origin: 335.627px 179.375px;"></path></g></g><path d="M334.53,181.24c-.75,0-1.21-.81-1.26-2.74s1.43-.86,1.43-.86,2-1,1.64,1.31C336.08,180.78,335.3,181.24,334.53,181.24Z" style="fill: rgb(97, 0, 237); transform-origin: 334.826px 179.292px;" id="elniivg36i4qp" class="animable"></path><g id="elld0lq6afoun"><path d="M340.59,155.9l-5.49,5.57a17.64,17.64,0,0,1,.75,2.85c2.21-.51,5.41-2.81,5.44-5.17A9.28,9.28,0,0,0,340.59,155.9Z" style="opacity: 0.2; transform-origin: 338.195px 160.11px;" class="animable"></path></g><path d="M335.88,134s-6,8.31-7,12c-4.08,2.38-4.9-9.33-2.74-16.55C332.88,133.68,335.88,134,335.88,134Z" style="fill: rgb(38, 50, 56); transform-origin: 330.429px 137.882px;" id="el9rtgydzhze5" class="animable"></path><path d="M349.07,143.71c-2.23,8.53-3,12.19-8.22,15.76-7.87,5.38-17.86.78-18.23-8.25-.33-8.12,3.37-20.71,12.5-22.48A12,12,0,0,1,349.07,143.71Z" style="fill: rgb(255, 195, 189); transform-origin: 336.054px 145.134px;" id="eldh1w4imt0c6" class="animable"></path><path d="M353.71,140.3s-4.29,6.95-4.87,10c-3.11,2.11-4.42-7.15-3.11-13C347.16,132.09,353.71,140.3,353.71,140.3Z" style="fill: rgb(38, 50, 56); transform-origin: 349.468px 143.088px;" id="elbeug7cfkyqi" class="animable"></path><path d="M352,135.47c-1.24.94-2.55-2.53-1.32-5.19-2.37.15-5.22-1.26-4.61-3.55-4.67,1.57-6.4-3.18-5.86-6.47.65-4,4.13-4.85,6.18-3.8,0-1.79,4.52-5.52,6.24-2.6,3.19-1.13,8.33-.78,8.22,3.14,2.11.06,8.34,2.45,6,8,2.75.16,4.24,3.65,2.71,6.29a4.25,4.25,0,0,1,.87,6.9c1.27,2.64-2.58,6.57-4.63,6.1-1.56,2.39-3.95,4.19-5.51,2.15-3,2.21-6.45-.6-5.68-2.76C351.21,143.16,347.74,137.49,352,135.47Z" style="fill: rgb(38, 50, 56); transform-origin: 355.968px 130.053px;" id="elcus3lie91se" class="animable"></path><path d="M357.08,127.07c2.24,3.74,2.05,8-.41,9.45s-6.29-.35-8.53-4.09-2.06-8,.41-9.45S354.84,123.34,357.08,127.07Z" style="fill: rgb(97, 0, 237); transform-origin: 352.608px 129.751px;" id="elge9pp5w41vm" class="animable"></path><path d="M336.28,133c-.13,1.07-3.08.79-3.93-1.1-1.22,1.28-4.09,1.94-5.07.55-1.66,3.12-5,2.3-5.86.81s-1.43-4.26.3-4.81c-1-.86-.7-4.91,1.92-4.4,1.1-2.16,4.11-4.61,6.31-2.7,1.2-1,6-3.08,7.94.73a3.41,3.41,0,0,1,5.11,1.6c3.11-.81,4.46,1.55,4.45,2.83,2.21.6,2.36,4.42,1,5.24.53,1.93.25,4-1.78,3.82-.39,2.6-3.87,3-4.69,1.59C339.72,138.61,335.11,136.09,336.28,133Z" style="fill: rgb(38, 50, 56); transform-origin: 334.96px 128.92px;" id="els0uw9b1ipgh" class="animable"></path><path d="M331,125.62c2.53-3.5,11.76-5,19.75.29,7.2,4.73,6.73,15.72,1,15.13s-11.39-7.3-11.39-7.3Z" style="fill: rgb(38, 50, 56); transform-origin: 343.55px 131.758px;" id="eln3yeb7i5jmn" class="animable"></path><path d="M349.77,151.41a6.46,6.46,0,0,1-3.78,3.14c-2.17.65-3.29-1.27-2.73-3.34.51-1.86,2.24-4.44,4.43-4.18A2.89,2.89,0,0,1,349.77,151.41Z" style="fill: rgb(255, 195, 189); transform-origin: 346.658px 150.845px;" id="elw349z4dz70m" class="animable"></path><path d="M325.34,228.31s-12.16,53.8-4,91.73c5.44,25.4,25,76.71,25,76.71l15.34-.39s-14.85-53.85-17.92-75c-5.25-36.22,7.9-95.29,7.9-95.29Z" style="fill: rgb(97, 0, 237); transform-origin: 340.101px 311.41px;" id="el57y6lz1uswg" class="animable"></path><g id="elcxy77qo5k54"><path d="M339.36,239.18,347,251.27a370.91,370.91,0,0,0-4.39,43.3C331.86,275.27,337,249.39,339.36,239.18Z" style="opacity: 0.2; transform-origin: 341.522px 266.875px;" class="animable"></path></g><polygon points="344.18 397.55 363.12 397.06 362.03 391.25 342.7 392.16 344.18 397.55" style="fill: rgb(38, 50, 56); transform-origin: 352.91px 394.4px;" id="eljiuyzc19ogi" class="animable"></polygon><path d="M333.2,227.74s7.13,57.05,22.6,88.2c12.49,25.16,45.82,61,45.82,61l8.52-8.78s-22.51-38.92-31.79-55.63c-22.77-41-4.16-72.25-17.07-87.3Z" style="fill: rgb(97, 0, 237); transform-origin: 371.67px 301.085px;" id="elzxw3r0sn3na" class="animable"></path><polygon points="400.76 378.09 411.76 367.37 408.11 362.4 396.44 374.04 400.76 378.09" style="fill: rgb(38, 50, 56); transform-origin: 404.1px 370.245px;" id="elemxd8w03py8" class="animable"></polygon><path d="M361.64,223.05l1.9,3.08c.15.23-.13.51-.54.55l-37.7,3.26c-.32,0-.6-.11-.64-.31l-.6-3.19c-.05-.22.22-.43.57-.46l36.4-3.15A.64.64,0,0,1,361.64,223.05Z" style="fill: rgb(97, 0, 237); transform-origin: 343.817px 226.38px;" id="el1972l7yn5f7" class="animable"></path><g id="elimtrjmfxsg"><path d="M361.64,223.05l1.9,3.08c.15.23-.13.51-.54.55l-37.7,3.26c-.32,0-.6-.11-.64-.31l-.6-3.19c-.05-.22.22-.43.57-.46l36.4-3.15A.64.64,0,0,1,361.64,223.05Z" style="fill: rgb(255, 255, 255); opacity: 0.5; transform-origin: 343.817px 226.38px;" class="animable"></path></g><path d="M357.1,227.54l1-.08c.19,0,.33-.13.31-.25l-.82-4.14c0-.13-.2-.21-.4-.19l-1,.08c-.2,0-.34.13-.31.25l.82,4.14C356.73,227.47,356.91,227.56,357.1,227.54Z" style="fill: rgb(97, 0, 237); transform-origin: 357.144px 225.21px;" id="el5sbjfqlw4fl" class="animable"></path><path d="M328.07,230.05l1-.08c.19,0,.33-.13.31-.25l-.82-4.14a.36.36,0,0,0-.4-.19l-1,.08c-.2,0-.34.13-.31.25l.82,4.14C327.7,230,327.88,230.07,328.07,230.05Z" style="fill: rgb(97, 0, 237); transform-origin: 328.114px 227.717px;" id="el3k1earx2u4p" class="animable"></path><path d="M342.59,228.8l1-.09c.2,0,.34-.13.31-.25l-.82-4.14c0-.12-.2-.21-.39-.19l-1,.09c-.19,0-.33.13-.31.25l.82,4.14C342.22,228.73,342.39,228.81,342.59,228.8Z" style="fill: rgb(97, 0, 237); transform-origin: 342.641px 226.464px;" id="elfkk1utkysx" class="animable"></path><path d="M334.63,143.42c-.14.7-.62,1.2-1.08,1.11s-.72-.74-.59-1.44.63-1.2,1.09-1.11S334.77,142.71,334.63,143.42Z" style="fill: rgb(38, 50, 56); transform-origin: 333.797px 143.255px;" id="elcfw0q9wl69" class="animable"></path><g id="eldp1jd2h17o7"><ellipse cx="325.85" cy="141.69" rx="1.3" ry="0.85" style="fill: rgb(38, 50, 56); transform-origin: 325.85px 141.69px; transform: rotate(-78.88deg);" class="animable"></ellipse></g><path d="M326.3,140.5l-1.6-.82S325.31,141.17,326.3,140.5Z" style="fill: rgb(38, 50, 56); transform-origin: 325.5px 140.177px;" id="ela4ds4loxpdl" class="animable"></path><path d="M329.41,143.61a19,19,0,0,1-3.38,4,3.06,3.06,0,0,0,2.41,1Z" style="fill: rgb(237, 132, 126); transform-origin: 327.72px 146.112px;" id="eltjbzw8jv4md" class="animable"></path><path d="M331.69,151.91a5.86,5.86,0,0,0,4-1.52.18.18,0,1,0-.26-.24,5.7,5.7,0,0,1-5,1.29.17.17,0,0,0-.2.14.16.16,0,0,0,.14.2A6.12,6.12,0,0,0,331.69,151.91Z" style="fill: rgb(38, 50, 56); transform-origin: 332.994px 150.988px;" id="el81avez50efb" class="animable"></path><path d="M339.4,140.69a.37.37,0,0,0,.18-.05.35.35,0,0,0,.12-.48,4.09,4.09,0,0,0-3.17-2,.35.35,0,0,0-.36.34.35.35,0,0,0,.34.36,3.4,3.4,0,0,1,2.59,1.71A.35.35,0,0,0,339.4,140.69Z" style="fill: rgb(38, 50, 56); transform-origin: 337.96px 139.426px;" id="el7x9hqr8qqid" class="animable"></path><path d="M324.48,137.87a.38.38,0,0,0,.17,0,3.43,3.43,0,0,1,3.1-.2.35.35,0,0,0,.32-.62,4.08,4.08,0,0,0-3.77.21.35.35,0,0,0-.13.47A.33.33,0,0,0,324.48,137.87Z" style="fill: rgb(38, 50, 56); transform-origin: 326.181px 137.283px;" id="el7gzzg10iy7c" class="animable"></path><path d="M364.54,179.16c.68.66,1.15,1.18,1.68,1.77s1,1.17,1.48,1.76c.95,1.19,1.86,2.41,2.71,3.66a60.28,60.28,0,0,1,4.48,7.91,51.25,51.25,0,0,1,3.11,8.57c.39,1.47.74,3,1,4.47a9.58,9.58,0,0,1-.69,6.32,8.35,8.35,0,0,1-2.23,2.66,11.27,11.27,0,0,1-2.61,1.5,18.9,18.9,0,0,1-5,1.18,42,42,0,0,1-9.13-.12,93.71,93.71,0,0,1-17.1-3.63l.92-3.63c2.72.45,5.52.87,8.28,1.16s5.54.55,8.27.61a43.32,43.32,0,0,0,7.91-.44,12.54,12.54,0,0,0,3.26-1,2.75,2.75,0,0,0,1.47-1.31,2,2,0,0,0,.12-.72,3.51,3.51,0,0,0,0-.54c0-.2-.07-.38-.16-.75-.28-1.29-.65-2.56-1.05-3.82a52.32,52.32,0,0,0-3-7.32,53.56,53.56,0,0,0-4.08-6.83c-.75-1.1-1.54-2.17-2.36-3.2-.41-.52-.84-1-1.26-1.51s-.9-1-1.23-1.36Z" style="fill: rgb(255, 195, 189); transform-origin: 360.746px 199.156px;" id="eluskj73i6rib" class="animable"></path><path d="M345.45,212.13l-7-3.71-.32,9.27s5,.32,7.86-2Z" style="fill: rgb(255, 195, 189); transform-origin: 342.06px 213.062px;" id="el1v28ej9r22wj" class="animable"></path><polygon points="333.17 262 338.95 199.19 326.6 189.73 288.9 186.26 282.35 257.32 333.17 262" style="fill: rgb(97, 0, 237); transform-origin: 310.65px 224.13px;" id="el27ac2cl3wua" class="animable"></polygon><g id="elswteybw9vxh"><polygon points="333.17 262 338.95 199.19 326.6 189.73 288.9 186.26 282.35 257.32 333.17 262" style="fill: rgb(255, 255, 255); opacity: 0.8; transform-origin: 310.65px 224.13px;" class="animable"></polygon></g><polygon points="338.95 199.19 326.6 189.73 329.84 201.05 338.95 199.19" style="fill: rgb(97, 0, 237); transform-origin: 332.775px 195.39px;" id="eloojwwq86hfp" class="animable"></polygon><circle cx="286.77" cy="252.9" r="15.4" style="fill: rgb(97, 0, 237); transform-origin: 286.77px 252.9px;" id="elah40v73bap9" class="animable"></circle><g id="elm1glbhhqxg"><circle cx="286.77" cy="252.9" r="12.28" style="fill: rgb(255, 255, 255); transform-origin: 286.77px 252.9px; transform: rotate(-38.31deg);" class="animable"></circle></g><polygon points="294.36 251.82 288.94 251.19 289.57 245.77 285.69 245.31 285.06 250.73 279.64 250.09 279.18 253.98 284.6 254.62 283.96 260.03 287.85 260.49 288.48 255.07 293.9 255.71 294.36 251.82" style="fill: rgb(97, 0, 237); transform-origin: 286.77px 252.9px;" id="eltwqi3iq349b" class="animable"></polygon><g id="elwc52e5zfxhh"><path d="M329.73,212.21h0a4.2,4.2,0,0,1-4.57,3.8l-27.5-2.53a4.21,4.21,0,0,1-3.8-4.57h0a4.2,4.2,0,0,1,4.57-3.8l27.5,2.53A4.2,4.2,0,0,1,329.73,212.21Z" style="fill: rgb(97, 0, 237); opacity: 0.4; transform-origin: 311.795px 210.56px;" class="animable"></path></g><g id="el2rhr24nl2n8"><path d="M320.36,223.56h0a4.2,4.2,0,0,1-4.57,3.8l-19.22-1.77a4.2,4.2,0,0,1-3.8-4.57h0a4.2,4.2,0,0,1,4.57-3.8L316.56,219A4.21,4.21,0,0,1,320.36,223.56Z" style="fill: rgb(97, 0, 237); opacity: 0.4; transform-origin: 306.564px 222.29px;" class="animable"></path></g><polygon points="334.17 208.97 335.22 215.9 338.12 217.69 338.44 208.42 334.17 208.97" style="fill: rgb(255, 195, 189); transform-origin: 336.305px 213.055px;" id="el178k011p6j9" class="animable"></polygon><path d="M363,171c4.41.78,10.59,13.42,10.59,13.42l-11.11,10s-8.84-9.64-8.37-15.38C354.52,174.19,357.4,170,363,171Z" style="fill: rgb(38, 50, 56); transform-origin: 363.841px 182.636px;" id="elal5tf14dzes" class="animable"></path><path d="M407.28,386.5a1.33,1.33,0,0,0,.34-.05c1.06-.36,1.75-2.31,2.07-3.44a.19.19,0,0,0-.06-.18.15.15,0,0,0-.19,0c-.32.16-3.14,1.67-3.23,2.78a.65.65,0,0,0,.3.62A1.22,1.22,0,0,0,407.28,386.5Zm2-3.18c-.49,1.56-1.12,2.59-1.72,2.79a.81.81,0,0,1-.79-.18.32.32,0,0,1-.16-.31C406.61,384.94,408.26,383.87,409.23,383.32Z" style="fill: rgb(97, 0, 237); transform-origin: 407.95px 384.648px;" id="elwh4zw4lud" class="animable"></path><path d="M406.84,383.76a6.35,6.35,0,0,0,2.77-.65.18.18,0,0,0,.08-.15.16.16,0,0,0-.09-.15c-.09-.05-2.32-1.28-3.52-.85a1,1,0,0,0-.66.62.7.7,0,0,0,.16.86A2,2,0,0,0,406.84,383.76Zm2.29-.8c-.95.41-2.8.66-3.32.22-.09-.08-.18-.2-.06-.47a.68.68,0,0,1,.44-.42C407,382,408.5,382.65,409.13,383Z" style="fill: rgb(97, 0, 237); transform-origin: 407.514px 382.818px;" id="el1kw0oqbo5o8" class="animable"></path><path d="M348.73,408.75a13.91,13.91,0,0,0,2.87-.37.17.17,0,0,0,0-.32c-.43-.21-4.26-2-5.22-1.32a.56.56,0,0,0-.25.54,1.25,1.25,0,0,0,.52,1A3.42,3.42,0,0,0,348.73,408.75Zm2.27-.6c-1.13.21-3.23.49-4.1-.16a1,1,0,0,1-.38-.73.22.22,0,0,1,.1-.23C347.15,406.66,349.41,407.45,351,408.15Z" style="fill: rgb(97, 0, 237); transform-origin: 348.919px 407.676px;" id="elahho4bae766" class="animable"></path><path d="M351.56,408.39a.21.21,0,0,0,.12,0,.17.17,0,0,0,.05-.18c0-.16-.9-3.93-3-3.69-.52.07-.67.32-.69.53-.13,1,2.28,2.89,3.43,3.37Zm-2.62-3.57c1.33,0,2.1,2.2,2.36,3.08-1.25-.66-3-2.23-2.89-2.84,0-.05,0-.19.39-.23Z" style="fill: rgb(97, 0, 237); transform-origin: 349.887px 406.465px;" id="elifgt5s1ol9" class="animable"></path><path d="M334.24,142.06l-1.59-.82S333.26,142.73,334.24,142.06Z" style="fill: rgb(38, 50, 56); transform-origin: 333.445px 141.737px;" id="el82xzvba0s8t" class="animable"></path></g><defs>     <filter id="active" height="200%">         <feMorphology in="SourceAlpha" result="DILATED" operator="dilate" radius="2"></feMorphology>                <feFlood flood-color="#32DFEC" flood-opacity="1" result="PINK"></feFlood>        <feComposite in="PINK" in2="DILATED" operator="in" result="OUTLINE"></feComposite>        <feMerge>            <feMergeNode in="OUTLINE"></feMergeNode>            <feMergeNode in="SourceGraphic"></feMergeNode>        </feMerge>    </filter>    <filter id="hover" height="200%">        <feMorphology in="SourceAlpha" result="DILATED" operator="dilate" radius="2"></feMorphology>                <feFlood flood-color="#ff0000" flood-opacity="0.5" result="PINK"></feFlood>        <feComposite in="PINK" in2="DILATED" operator="in" result="OUTLINE"></feComposite>        <feMerge>            <feMergeNode in="OUTLINE"></feMergeNode>            <feMergeNode in="SourceGraphic"></feMergeNode>        </feMerge>            <feColorMatrix type="matrix" values="0   0   0   0   0                0   1   0   0   0                0   0   0   0   0                0   0   0   1   0 "></feColorMatrix>    </filter></defs></svg>